<svg width="186" height="186" viewBox="0 0 186 186" fill="none" xmlns="http://www.w3.org/2000/svg">
<g id="language_svgrepo.com">
<g id="Vector">
<path d="M101.401 68.432C81.5945 85.8982 65.5752 95.2893 48.1755 99.5905C47.333 99.8005 46.5005 99.7531 45.7805 99.5431C44.2204 99.0882 42.9479 97.8708 42.5278 96.1859C41.8976 93.6584 43.4224 91.1083 45.9324 90.5381C60.6671 86.8921 74.0491 79.4013 90.7032 65.3777L52.9625 54.3727C50.5024 53.6553 49.0573 51.0204 49.7746 48.5604C50.4919 46.1003 53.1268 44.6552 55.5869 45.3725L78.0873 51.9335L81.5515 40.0533C82.2689 37.5932 84.9038 36.148 87.3638 36.8654C89.8238 37.5827 91.269 40.2176 90.5517 42.6777L87.0875 54.5579L109.588 61.1189C112.048 61.8363 113.493 64.4712 112.776 66.9312C112.058 69.3912 109.424 70.8364 106.964 70.1191L101.323 68.4745L101.401 68.432ZM88.9213 112.123C88.1413 111.895 87.4138 111.488 86.8162 110.858C83.581 107.441 80.5358 103.818 77.7655 100.146C76.2228 98.0686 76.6252 95.1261 78.7026 93.5835C80.78 92.0408 83.7225 92.4431 85.2651 94.5205C87.7879 97.9254 90.6631 101.238 93.6508 104.387C95.4434 106.277 95.3586 109.247 93.4687 111.04C92.2088 112.235 90.4813 112.578 88.9213 112.123Z" fill="#FF8435" fill-opacity="0.1"/>
<path d="M134.256 88.4502C134.256 88.4502 131.918 82.4736 126.958 81.0275C121.999 79.5813 111.872 87.2188 109.842 94.1789C108.629 98.3387 114.204 102.742 114.204 102.742C114.204 102.742 101.618 108.1 97.3253 122.82C93.033 137.54 104.024 149.859 115.784 153.289C120.264 154.595 138.817 150.804 138.817 150.804L139.027 150.084C139.027 150.084 132.628 148.218 124.067 145.722C115.507 143.226 100.03 130.814 103.436 119.133C108.049 103.313 129.084 104.998 129.084 104.998C129.084 104.998 130.738 104.091 133.901 101.281C137.064 98.4709 138.494 96.5441 138.494 96.5441C138.494 96.5441 134.327 96.5437 129.951 97.2643C125.574 97.9849 122.841 99.6183 120.761 99.0117C118.681 98.4051 113.683 93.2167 114.267 91.216C114.85 89.2153 119.777 86.3124 125.647 86.722C131.517 87.1316 134.256 88.4502 134.256 88.4502Z" fill="#FF8435" fill-opacity="0.1"/>
</g>
</g>
</svg>
