<svg width="186" height="187" viewBox="0 0 186 187" fill="none" xmlns="http://www.w3.org/2000/svg">
<g id="language_svgrepo.com">
<path id="Vector" d="M148.954 73.7346C141.335 65.9326 129.295 64.6485 116.739 70.3014C115.956 70.6538 115.022 70.3308 114.664 69.5507L110.86 61.2755C110.451 60.3855 110.747 59.3302 111.559 58.7824L127.941 47.7287C128.524 47.3415 128.376 46.7501 127.969 46.1965C127.57 45.6458 124.88 41.7769 124.536 41.3198C124.066 40.6696 123.665 40.8762 123.135 41.2334C122.724 41.5115 112.718 47.8294 108.421 50.5417C107.398 51.1879 106.042 50.782 105.538 49.6814L101.3 40.424C100.987 39.7426 100.534 39.7295 99.8547 40.0484L94.2863 42.6607C93.7168 42.9302 93.5098 43.3327 93.7646 43.8694L98.9035 54.861C99.3205 55.7528 99.0272 56.8149 98.2112 57.3655C94.3842 59.9478 84.1015 66.8872 83.7642 67.1247C83.3392 67.4082 82.9647 67.8334 83.2904 68.279C83.616 68.7246 87.0245 73.7963 87.3151 74.1787C87.6107 74.572 88.0268 74.7071 88.6073 74.301L101.429 65.6465C102.446 64.9604 103.835 65.3423 104.358 66.4516L107.855 73.8727C108.248 74.7077 108.013 75.6991 107.324 76.3129C102.913 80.2412 100.597 84.5397 99.3921 87.9813C97.1781 94.2881 97.4366 101.278 100.087 107.165C103.993 115.842 111.629 118.609 119.462 116.175C135.851 111.083 139.311 91.4722 139.47 79.8072C139.491 78.2289 141.177 77.2632 142.3 78.372C149.512 85.4904 150.578 100.948 142.684 114.044C142.52 114.308 142.465 114.991 143.013 115.258L148.262 117.869C148.936 118.197 149.534 117.684 149.719 117.364C159.19 101.717 158.627 83.645 148.954 73.7346ZM116.398 109.369C110.814 111.087 108.982 106.694 107.654 103.745C105.75 99.5159 105.551 94.2953 107.136 89.7917C107.817 87.8711 108.797 86.0765 110.034 84.4718C110.871 83.3873 112.5 83.6771 113.086 84.9148L122.25 104.27C122.622 105.057 122.451 106.004 121.767 106.543C120.225 107.759 118.449 108.73 116.398 109.369ZM129.84 96.0719C129.352 97.7448 127.185 97.7818 126.487 96.1849L119.05 79.1587C118.71 78.3799 119.023 77.4453 119.798 77.0964C124.027 75.1924 128.329 74.2098 131 74.4284C133.278 74.6193 132.463 87.0827 129.84 96.0719ZM60.4604 80.4591C60.2922 80.2535 60.0594 80.1109 59.7998 80.0545C59.5403 79.9981 59.2693 80.0313 59.0309 80.1486L48.3625 84.9517C48.1189 85.0517 47.9164 85.2313 47.788 85.4611C47.6597 85.691 47.6131 85.9576 47.6558 86.2174L55.7248 155.234C55.7575 155.555 55.8519 155.677 56.2512 155.497L65.7325 151.229C66.1428 151.044 66.2175 150.859 66.1789 150.554L63.7103 131.389C63.5978 130.515 64.0698 129.671 64.8729 129.309L81.2956 121.916C82.0986 121.554 83.0436 121.76 83.623 122.424L96.3351 136.977C96.5433 137.206 96.7258 137.275 97.1307 137.092L106.617 132.821C107.011 132.644 106.983 132.492 106.769 132.253C106.57 132.014 65.9086 86.5536 60.4604 80.4591ZM64.0939 120.396C62.8893 120.938 61.4993 120.184 61.2965 118.879L57.7983 96.3569C57.4865 94.3499 60.0186 93.2099 61.3145 94.7738L75.8572 112.323C76.7001 113.34 76.3429 114.881 75.1383 115.423L64.0939 120.396Z" fill="#006FE6" fill-opacity="0.1"/>
</g>
</svg>
