<svg width="29" height="28" viewBox="0 0 29 28" fill="none" xmlns="http://www.w3.org/2000/svg">
<path d="M13.5489 2.92705C13.8483 2.00574 15.1517 2.00574 15.4511 2.92705L17.4187 8.98278C17.5526 9.3948 17.9365 9.67376 18.3697 9.67376H24.7371C25.7058 9.67376 26.1086 10.9134 25.3249 11.4828L20.1736 15.2254C19.8231 15.4801 19.6764 15.9314 19.8103 16.3435L21.7779 22.3992C22.0773 23.3205 21.0228 24.0866 20.2391 23.5172L15.0878 19.7746C14.7373 19.5199 14.2627 19.5199 13.9122 19.7746L8.7609 23.5172C7.97719 24.0866 6.92271 23.3205 7.22206 22.3992L9.18969 16.3435C9.32356 15.9314 9.1769 15.4801 8.82642 15.2254L3.67511 11.4828C2.89139 10.9134 3.29417 9.67376 4.26289 9.67376H10.6303C11.0635 9.67376 11.4474 9.3948 11.5813 8.98278L13.5489 2.92705Z" fill="#FF9D5D"/>
</svg>
